<svg width="71" height="84" xmlns="http://www.w3.org/2000/svg" xmlns:xlink="http://www.w3.org/1999/xlink">
  <defs>
    <path d="M26.77 27.69c12.424-14.806 34.502-16.738 49.31-4.313C90.884 35.8 92.816 57.88 80.392 72.687 67.968 87.492 45.89 89.423 31.083 77 16.277 64.576 14.345 42.497 26.77 27.69zm6.402 5.373c-7.294 8.693-8.086 20.54-2.976 29.553L61.76 25c-9.764-3.467-21.294-.63-28.588 8.063zM56.046 52.94c1.485-1.77 1.254-4.405-.515-5.89-1.767-1.483-4.402-1.252-5.886.516-1.484 1.77-1.254 4.404.515 5.888 1.768 1.484 4.402 1.254 5.886-.515zm-19.99 17.32c10.05 8.435 24.48 8.126 34.11-.017-11.207-9.138-26.39-9.182-34.11.018zm40.156-7.22c6.345-10.9 4.145-25.163-5.906-33.596-7.72 9.2-5.04 24.145 5.906 33.596zm-15.224 9.035c.025.74 3.196-3.755 4.832 4.93.408 2.166.347 6.432-1.923 12.565-1.002 2.706-2.452 2.43-2.27 7.67-2.71.827-4.72.916-6.04.963-1.54.054-4.63.454-7.643-.172 0 0-.165.474-1.103-2.024-.31-.828-.703-2.763-2.042-4.385-1.944-2.353-4.17-4.758-4.355-4.935-1.528-1.454-4.502-3.708-3.177-5.502.897-1.214 6.592 2.678 7.477 2.238-.027-4.19-.787-4.177-1.38-6.416-.078-.293-1.606-2.357-2.92-3.23-.08-1.85 4.198-6.253 6.398-6.355 2.2-.103 3.417 1.776 3.417 1.776s.43-.975 2.336-1.02c.28-.007.553.013.814.07.946.202 1.57 2.012 2.18 3.034.43-.19 1.233-1.602 1.952-1.627.426-.015.836.04 1.214.168.97.326 1.72 1.082 2.234 2.255z" id="a"/>
  </defs>
  <g transform="translate(-18 -15)" fill-rule="nonzero" fill="none">
    <use fill="#FFFFFF" fill-rule="evenodd" xlink:href="#a"/>
    <path d="M26.77 27.69c12.424-14.806 34.502-16.738 49.31-4.313C90.884 35.8 92.816 57.88 80.392 72.687 67.968 87.492 45.89 89.423 31.083 77 16.277 64.576 14.345 42.497 26.77 27.69zm6.402 5.373c-7.294 8.693-8.086 20.54-2.976 29.553L61.76 25c-9.764-3.467-21.294-.63-28.588 8.063zM56.046 52.94c1.485-1.77 1.254-4.405-.515-5.89-1.767-1.483-4.402-1.252-5.886.516-1.484 1.77-1.254 4.404.515 5.888 1.768 1.484 4.402 1.254 5.886-.515zm-19.99 17.32c10.05 8.435 24.48 8.126 34.11-.017-11.207-9.138-26.39-9.182-34.11.018zm40.156-7.22c6.345-10.9 4.145-25.163-5.906-33.596-7.72 9.2-5.04 24.145 5.906 33.596zm-15.224 9.035c.025.74 3.196-3.755 4.832 4.93.408 2.166.347 6.432-1.923 12.565-1.002 2.706-2.452 2.43-2.27 7.67-2.71.827-4.72.916-6.04.963-1.54.054-4.63.454-7.643-.172 0 0-.165.474-1.103-2.024-.31-.828-.703-2.763-2.042-4.385-1.944-2.353-4.17-4.758-4.355-4.935-1.528-1.454-4.502-3.708-3.177-5.502.897-1.214 6.592 2.678 7.477 2.238-.027-4.19-.787-4.177-1.38-6.416-.078-.293-1.606-2.357-2.92-3.23-.08-1.85 4.198-6.253 6.398-6.355 2.2-.103 3.417 1.776 3.417 1.776s.43-.975 2.336-1.02c.28-.007.553.013.814.07.946.202 1.57 2.012 2.18 3.034.43-.19 1.233-1.602 1.952-1.627.426-.015.836.04 1.214.168.97.326 1.72 1.082 2.234 2.255z"/>
  </g>
</svg>