<svg xmlns="http://www.w3.org/2000/svg" width="208" height="52"><g fill="none" fill-rule="evenodd"><path fill="#000" d="M45.03 41.9C54.1 31.1 52.68 15 41.9 5.96 31.1-3.1 15-1.68 5.96 9.1-3.1 19.9-1.68 36 9.1 45.04 19.9 54.1 36 52.68 45.04 41.9z"/><path fill="#FFF" fill-rule="nonzero" d="M10.56 12.96c6.92-8.24 19.22-9.32 27.47-2.4s9.33 19.2 2.4 27.45c-6.9 8.25-19.2 9.33-27.46 2.4-8.25-6.9-9.33-19.2-2.4-27.44zm17.06 8.42c-.14 1.48-2.02 3.93-5.64 7.35 3.27-1.1 5.82-1.02 7.68.27-1.03-1.43-1.78-3.7-2.25-6.8.16-.7.23-.98.22-.82zm-13.7-5.62C9.9 20.6 9.46 27.18 12.28 32.2l17.38-20.93c-5.38-1.93-11.73-.35-15.74 4.5zm1.67 20.77c5.64 4.53 13.75 4.36 19.17 0-6.3-4.92-14.84-4.94-19.18 0zm22.3-4.34c3.52-6.02 2.3-13.88-3.25-18.53-4.26 5.07-2.78 13.3 3.26 18.52zm-8.45 5.15c0 .4 1.76-2.1 2.66 2.74.23 1.2.2 3.58-1.05 7-.55 1.5-1.35 1.35-1.25 4.27-1.5.46-2.6.5-3.32.53-.85.03-2.54.26-4.2-.1 0 0-.1.27-.6-1.12-.18-.46-.4-1.54-1.13-2.44-1.07-1.32-2.3-2.66-2.4-2.75-.83-.82-2.47-2.08-1.74-3.08.5-.68 3.64 1.5 4.12 1.25 0-2.34-.43-2.33-.76-3.58-.04-.17-.88-1.32-1.6-1.8-.05-1.04 2.3-3.5 3.5-3.55 1.22-.05 1.9 1 1.9 1s.23-.55 1.28-.58c.15 0 .3 0 .44.04.52.13.87 1.13 1.2 1.7.24-.1.68-.9 1.07-.9.24 0 .46.02.67.1.54.17.95.6 1.23 1.25z"/><path fill="#000" d="M74.2 31.64c0 .26.02.45.08.6.05.12.13.23.23.3.12.06.24.1.37.13.14.03.28.07.4.14.54.22.8.65.8 1.3 0 .56-.18 1-.55 1.32-.36.32-1 .48-1.9.48-.65 0-1.2-.1-1.65-.3-.46-.22-.88-.6-1.27-1.14-.64.52-1.33.9-2.07 1.16-.74.25-1.6.38-2.54.38-2.02 0-3.54-.5-4.56-1.47-1.03-1-1.54-2.3-1.54-3.95v-.1c0-3.5 2.26-5.25 6.77-5.25.46 0 .9.02 1.35.07.45.05.9.14 1.35.27v-1.1c0-1.57-.87-2.36-2.6-2.36-.48 0-.88.06-1.2.17-.34.1-.68.23-1.02.4-.14.04-.3.1-.5.2-.22.1-.48.13-.8.13-.36 0-.67-.06-.92-.2-.25-.1-.46-.27-.62-.47-.15-.2-.26-.4-.33-.65-.07-.24-.1-.46-.1-.67 0-.5.17-.92.5-1.3.35-.36.8-.65 1.36-.88.56-.23 1.2-.4 1.88-.5.7-.1 1.4-.15 2.1-.15 2.5 0 4.28.6 5.37 1.8 1.08 1.2 1.62 2.96 1.62 5.3v6.37zm-7.16-3.08c-.5 0-.9.05-1.2.15-.32.12-.56.26-.73.44-.16.18-.27.4-.33.64s-.1.48-.1.73v.12c0 .57.2.97.53 1.2.34.25.87.37 1.6.37.46 0 .9-.07 1.34-.2.43-.12.88-.36 1.33-.7v-2.47c-.9-.18-1.72-.27-2.43-.27zm17.13-3.1c.3.95.52 1.9.67 2.82.15.94.3 1.9.5 2.85.18-.96.34-1.9.5-2.85.14-.93.35-1.87.62-2.8l1.78-5.74c.16-.45.46-.8.9-1.08.42-.26.87-.4 1.32-.4.62 0 1.16.2 1.63.58.45.37.7.87.7 1.5v.26c0 .1-.03.2-.08.3l-4.68 13c-.28.74-.6 1.27-1 1.6-.4.33-.98.5-1.7.5-.76 0-1.34-.16-1.75-.48-.42-.32-.75-.83-1-1.54l-4.75-13.1c-.05-.12-.07-.22-.07-.3v-.3c0-.6.23-1.1.7-1.48.47-.38 1-.56 1.62-.56.46 0 .9.13 1.32.4.42.25.7.6.87 1.07l1.87 5.77zm12.3-10.14c0-.6.2-1.1.62-1.5.4-.4 1-.6 1.74-.6.75 0 1.33.2 1.74.63.4.4.62.9.62 1.47v3.8h2.53c.64 0 1.17.2 1.6.6.44.38.65.87.65 1.47 0 .58-.2 1.07-.65 1.44-.43.38-.96.57-1.6.57h-2.53v5.2c0 .63 0 1.16.05 1.6.03.43.12.8.26 1.06.14.28.33.47.57.58.24.12.56.18.97.18.16 0 .3 0 .38-.02l.2-.02c1.1 0 1.84.15 2.23.45.4.3.58.76.58 1.4 0 .5-.1.9-.27 1.2-.2.3-.43.53-.74.7-.3.15-.66.25-1.04.3-.4.04-.8.07-1.23.07-1.33 0-2.42-.16-3.3-.48-.85-.32-1.54-.8-2.04-1.4-.5-.63-.84-1.4-1.03-2.3-.2-.9-.3-1.93-.3-3.1v-13.3zM116.83 36c-1.2 0-2.27-.17-3.2-.5-.92-.33-1.7-.78-2.32-1.35-.63-.57-1.1-1.25-1.42-2.03-.32-.77-.48-1.6-.48-2.5v-5.1c0-.9.16-1.73.48-2.5.32-.8.8-1.46 1.42-2.04.63-.57 1.4-1.02 2.32-1.35.93-.33 2-.5 3.2-.5 1.2 0 2.28.17 3.2.5.92.33 1.7.78 2.32 1.35.63.58 1.1 1.25 1.42 2.03.32.8.48 1.62.48 2.5v5.12c0 .9-.16 1.73-.48 2.5-.32.78-.8 1.46-1.42 2.03-.62.57-1.4 1.02-2.32 1.35-.92.33-2 .5-3.2.5zm0-4.05c.9 0 1.56-.2 2.02-.6.45-.43.68-1 .68-1.73v-5.14c0-.7-.23-1.27-.68-1.68-.46-.4-1.13-.62-2.02-.62-.9 0-1.56.2-2.02.62-.45.4-.68.97-.68 1.68v5.14c0 .73.23 1.3.68 1.72.46.4 1.13.6 2.02.6zm16.86-1.7c0 .63.23 1.13.7 1.5.46.36 1.1.55 1.9.55.86 0 1.5-.2 1.9-.62.42-.4.62-.98.62-1.72V23.7c0-.63-.18-1.1-.54-1.45-.37-.34-.97-.52-1.8-.52-1.15 0-2.08.32-2.78.96v7.54zm-4.72-17.16c0-.56.2-1.04.6-1.47.42-.42 1-.63 1.76-.63.75 0 1.33.2 1.74.63.4.43.62.9.62 1.46v6.03c.54-.32 1.1-.56 1.67-.72.57-.15 1.26-.23 2.05-.23 1.1 0 2.03.14 2.8.43.75.28 1.4.68 1.9 1.2.5.5.85 1.12 1.08 1.8.23.7.34 1.46.34 2.26v5.76c0 .9-.15 1.73-.46 2.5-.3.78-.76 1.46-1.37 2.03-.6.57-1.37 1.02-2.28 1.35-.9.33-1.97.5-3.18.5-1.16 0-2.2-.15-3.1-.45-.9-.3-1.65-.7-2.27-1.2-.6-.53-1.1-1.14-1.42-1.85-.33-.7-.5-1.46-.5-2.26V13.1zm24.6.57c0 .67-.24 1.23-.76 1.7-.5.47-1.14.7-1.9.7-.75 0-1.38-.23-1.9-.7-.5-.47-.76-1.03-.76-1.7 0-.66.26-1.22.77-1.7.52-.46 1.15-.7 1.9-.7.76 0 1.4.24 1.9.7.52.48.77 1.04.77 1.7zm-.3 20.2c0 .6-.22 1.1-.68 1.5-.45.42-1 .63-1.67.63-.65 0-1.2-.2-1.67-.62-.45-.4-.68-.9-.68-1.5V20.35c0-.57.23-1.06.68-1.47.46-.42 1.02-.63 1.68-.63.67 0 1.23.2 1.68.62.46.4.7.9.7 1.46v13.5zm13.75-11.35l-.95-.05c-.27 0-.53 0-.78.02-.26 0-.5.05-.74.1-.24.07-.5.15-.8.27l.05.32.02.32v10.35c0 .6-.23 1.1-.7 1.5-.44.42-1 .63-1.66.63-.66 0-1.22-.2-1.68-.62-.46-.4-.68-.9-.68-1.5V23.5c0-.4-.03-.7-.1-.95-.05-.24-.14-.46-.28-.66-.14-.18-.25-.35-.34-.5-.1-.17-.14-.37-.14-.63 0-.6.24-1.1.7-1.5.47-.37 1-.55 1.63-.55.36 0 .7.1 1 .3.3.18.56.44.8.76.8-.46 1.58-.82 2.32-1.08.74-.26 1.38-.4 1.93-.4 1.07 0 1.8.2 2.2.6.4.4.6.9.6 1.46 0 .67-.23 1.2-.7 1.6-.47.43-1.03.6-1.7.56zM176.45 36c-.34 0-.7-.04-1.1-.12-.38-.08-.73-.26-1.05-.55-.33-.28-.6-.7-.8-1.23-.23-.54-.34-1.26-.34-2.15V13.13c0-.58.23-1.07.7-1.5.44-.42 1-.63 1.66-.63.66 0 1.22.2 1.68.62.45.4.68.9.68 1.5v18.42c0 .37.02.63.07.8.04.15.2.36.44.6l.44.5c.1.15.17.4.17.7 0 .63-.22 1.1-.67 1.4-.46.3-1.1.46-1.9.46zm12.2-22.33c0 .67-.25 1.23-.76 1.7-.5.47-1.15.7-1.9.7s-1.38-.23-1.9-.7c-.5-.47-.76-1.03-.76-1.7 0-.66.25-1.22.76-1.7.52-.46 1.15-.7 1.9-.7s1.4.24 1.9.7c.5.48.77 1.04.77 1.7zm-.3 20.2c0 .6-.23 1.1-.68 1.5-.46.42-1.02.63-1.68.63-.66 0-1.22-.2-1.67-.62-.45-.4-.68-.9-.68-1.5V20.35c0-.57.23-1.06.7-1.47.44-.42 1-.63 1.66-.63.66 0 1.22.2 1.68.62.45.4.68.9.68 1.46v13.5zM203.5 18.9c.2-.22.44-.37.74-.46.3-.1.58-.14.85-.14.65 0 1.2.2 1.63.57.44.38.65.86.65 1.46 0 .55-.2 1.03-.65 1.44h.04l-4.17 4.42 5.02 6.64c.12.2.2.4.28.64.07.24.1.45.1.63-.05.6-.28 1.07-.72 1.4-.43.33-.96.5-1.57.5-.83 0-1.48-.32-1.94-.96l-4.62-6.28-.37.35v4.77c0 .6-.23 1.1-.7 1.5-.44.42-1 .63-1.66.63-.65 0-1.2-.2-1.67-.62-.45-.4-.68-.9-.68-1.5V13.12c0-.6.23-1.1.68-1.5.46-.42 1.02-.63 1.68-.63.67 0 1.23.2 1.68.62.46.4.7.9.7 1.5V24l4.7-5.1z"/></g></svg>